<mxfile host="app.diagrams.net" agent="Mozilla/5.0 (X11; Linux x86_64) AppleWebKit/537.36 (KHTML, like Gecko) Chrome/131.0.0.0 Safari/537.36" version="26.0.2">
  <diagram name="PÃ¡gina-1" id="eGXeKf5tvGr_kJZ-Ue_N">
    <mxGraphModel dx="1434" dy="788" grid="1" gridSize="10" guides="1" tooltips="1" connect="1" arrows="1" fold="1" page="1" pageScale="1" pageWidth="827" pageHeight="1169" math="0" shadow="0">
      <root>
        <mxCell id="0" />
        <mxCell id="1" parent="0" />
        <mxCell id="DNTRqTkwEnmL52qoKm-J-3" value="" style="shape=image;verticalLabelPosition=bottom;labelBackgroundColor=default;verticalAlign=top;aspect=fixed;imageAspect=0;image=data:image/jpeg,/9j/4AAQSkZJRgABAQAAAQABAAD/2wBDAAgGBgcGBQgHBwcJCQgKDBQNDAsLDBkSEw8UHRofHh0aHBwgJC4nICIsIxwcKDcpLDAxNDQ0Hyc5PTgyPC4zNDL/2wBDAQkJCQwLDBgNDRgyIRwhMjIyMjIyMjIyMjIyMjIyMjIyMjIyMjIyMjIyMjIyMjIyMjIyMjIyMjIyMjIyMjIyMjL/wAARCAIAAgADASIAAhEBAxEB/8QAHwAAAQUBAQEBAQEAAAAAAAAAAAECAwQFBgcICQoL/8QAtRAAAgEDAwIEAwUFBAQAAAF9AQIDAAQRBRIhMUEGE1FhByJxFDKBkaEII0KxwRVS0fAkM2JyggkKFhcYGRolJicoKSo0NTY3ODk6Q0RFRkdISUpTVFVWV1hZWmNkZWZnaGlqc3R1dnd4eXqDhIWGh4iJipKTlJWWl5iZmqKjpKWmp6ipqrKztLW2t7i5usLDxMXGx8jJytLT1NXW19jZ2uHi4+Tl5ufo6erx8vP09fb3+Pn6/8QAHwEAAwEBAQEBAQEBAQAAAAAAAAECAwQFBgcICQoL/8QAtREAAgECBAQDBAcFBAQAAQJ3AAECAxEEBSExBhJBUQdhcRMiMoEIFEKRobHBCSMzUvAVYnLRChYkNOEl8RcYGRomJygpKjU2Nzg5OkNERUZHSElKU1RVVldYWVpjZGVmZ2hpanN0dXZ3eHl6goOEhYaHiImKkpOUlZaXmJmaoqOkpaanqKmqsrO0tba3uLm6wsPExcbHyMnK0tPU1dbX2Nna4uPk5ebn6Onq8vP09fb3+Pn6/9oADAMBAAIRAxEAPwD3+iiigAooooAKKKKACiiigAooooAKKKKACiiigAooooAKKKKACiiigAooooAKKKKACiiigAooooAKKKKACiiigAooooAKKKKACiiigAooooAKKKKACiiigAooooAKKKKACiiigAooooAKKKKACiiigAooooAKKKKACiiigAooooAKKKKACiiigAooooAKKKKACiiigAooooAKKKKACiiigAooooAKKKKACiiigAooooAKKKKACiiigAooooAKKKKACiiigAooooAKKKKACiiigAooooAKKKKACiiigAooooAKKKKACiiigAooooAKKKKACiiigAooooAKKKKACiiigAooooAKKKKACiiigAooooAKKKKACiiigAooooAKKKKACiiigAooooAKKKKACiiigAooooAKKKKACiiigAooooAKKKKACiiigAooooAKKKKACiiigAooooAKKKKACiiigAooooAKKKKACiiigAooooAKKKKACiiigAooooAKKKKACiiigAooooAKKKKACiiigAooooAKKKKACiiigAooooAKKKKACiiigAooooAKKKKACiiigAooooAKKKKACiiigAooooAKKKKACiiigAooooAKKKKACiiigAooooAKKKKACiiigAooooAKKKKACiiigAooooAKKKKACiiigAooooAKKKKACiiigAooooAKKKKACiiigAooooAKKKKACiiigAooooAKKKKACiiigAooooAKKKKACivGPG3jtj4utJ9GvTJb6cBgDPlySZIbofmUrhc/XHByfTfDPiax8T6Yt1aOBKoHnwE/NEx7e44OD3x7EDKFaMpOK6FODSubVFFFakhRRRQAUUUUAFFFFABRRRQAUUUUAFFFFABRRRQAUUUUAFFFFABRRRQAUUUUAFFFFABRRRQAUUUUAFFFFABRRRQAUUUUAFFFFABRRRQAUUUUAFFFFABRRRQAUUUUAFFFFABRRRQAUUUUAFFFFABRRRQAUVzeq+O/D+lDDXoupD0jtcSH887R9Cc1w+r/ABU1C7d4tIt1tIj92SZQ0nBznH3RkcYw31rGdenDdlxhJnoXiHxTpnhu3L3suZiheOBBlnx+g+p968m8R/ETVPEMDWsMa2No3WOOQl3GMEMeMqeeMfnWC7PcyvPPK8srtudySSx96gMQYgZGR0c9q8+pi5T0WiN40ktWVIrcFX6/UCrmny3WlXsd3p9w0M8Zyrr1+nuPY8VIiL5ZGQ3AxxgH8aCjBT8gX2A5rm52tjSx6n4Z+JlrfbbTWtlpcjgTjIjc5xz/AHD9eODyOlegV8wyL905GDyAa7Dwl48vdAxbXBN1pu7JQ8vGMc7OcAdODxxxjJNd9HGW0qfeYTpdYnt1FZui6/p2v2n2jT7gSBQN6EYeMnsw/PnpwcE1pV3ppq6MLWCiiimAUUUUAFFFFABRRRQAUUUUAFFFFABRRRQAUUUUAFFFFABRRRQAUUUUAFFFFABRRRQAUUUUAFFFFABRRRQAUUUUAFFFFABRRRQAUUUUAFFFFABRRRQAUUUUAFFFFABRRWNqvivRdHhma5v4WkiOGgikVpc+m3OR+OKUpKKuwSvsbNUtS1fT9HgE2oXcVuh+7vPLfQDk9R0ryXX/AInarfvJFpmLG1O5Qw5lZemS3IU/Tp6nrXGO8tzM1xcSNJM5LO7kknPck9T71xVcdGPwK5tGi3uepaz8V4ImeHRrPz26LPOSqdeu3qRgdyPpXEat4n1rXyftt2/kMT+5j+SMDOcY7/U5PvWQArKDzkcgVNGuVHNcFTE1Ki1ZvGnGJAsJwFU49CRUy23lr82VQ8lqmTJYjy8npnpUxTcuwY4PYVhzF2KeNkq5BIPQjpSujtkpsLA9Bz/KpQpBKNuwxx7ilZBFlSuQP4s4zTAhjjQQS/M4+fPPWnnMiJ+8YsOFJ6+2PSpkDNC+w4IPUmoeVRtjM79M9dtNuwrEM6NLMSQrEdeO9ONqUUuWxx0xyakh2DYWAPrjqatzK7ktz/h+FZubuVbQpW0kltcRSQyvFKjZV0bBB9R6V3uifE+5tnaDW4GuEA+WeBAHzkn5lyBjtxjHHXOa4R0H3txDKeWFRFGc5c+/PU1vSrTpu8WRKClue/aZ4j0jWMCxvopJDn92Ttfjk/KcEj3HFalfOJBBVg7LIPmB6VuWPjnxFpzYF688e7dsuMSZ/E84+hrup49P40YSoPoe5UV5xpnxVjYbNU09kYLzJbNnJzx8rdBj/aP+Haab4i0jVztsb+GV8kCPO1zgZPynBxjviuyFanP4WZOElujTooorUkKKKKACiiigAooooAKKKKACiiigAooooAKKKKACiiigAooooAKKKKACiiigAooooAKKKKACiiigAooooAKKKKACiiigAooooAKKKKACiisHXvGOj+Hvku7jzLjODbwYaQcZyRkY4I649qmUlFXkxpN7G9XF+JPiNpmjl7axIv70ZBEZ/dxnH8Td+vQehBIrzbxN441XxJKYDm2sf+faNuG5yNx/iP6cdK55PwOK86tjulP7zeFDrI6TV/G+ua7G0NxciG2bGYbddintgn7xHsSR+QrCMAZdz8N2HqKSNNzKdxH06VYVH243Aj0rzp1JTd5M6VFJaFQKEkQsu5OrKDg7f8aSGOQbTk4bir6xK/U8DuKm8hRyAD7GlzdAsQLFhRgKretIRhgCgznjIxU5LKvGSfTuB7etJA6q6LsI56FqaExyA+Zt+b5e/vVxE7cfhVdExK3BHPepd5BAHB9OlZyWo7jZMDPbPbNQl9vyBQyDnBqVmDDEi4x6daheMhmZfmB/hzyKuIhy4Fqx25XdyC1TySWL20At4TDIq5lkaXfuPGCo2/KBzUBGbV9mcZHTk0zaCCJWYkgFUB5zVNgTpiRyd2B/eWpkw3zDlfxqujn7o+TaOg4wKlBVsY5Pbkc1jJXKTI2C+YQCOQRiq+xRnCFj61M+VZSEUc8cdKJFLTEH8/SrjsIg2HID4BP5/pTfK37ug4qVCvRMD0J5FPCZA28DqT607isU/K6AlSP9nvTmTawKnv2q1t4J5IX61HKvzYEe7PO0tj8KXNqFjodI8eaxpOFef7db7hmO4JLY74bqD+Y9q7nT/iR4fu7ZXuZ3s5jwYpI2bB9iARj646dK8kZLaUyTFCjtyIUX5R7bi2cD8/51Sliyx2BeeoBrrp4upDS9zKVKMj6Rtru2vYfOtbiKeLON8Thhn6ipq+ctL1HUNLuRcafdywydyp4PPQjoR7HivQ9C+J4yINbhx91RcQJ36EsufxOPyrvp42EtJaGMqMlselUVXsr611G2W4s5454m6Mhz2zg+h56GrFdid9jIKKKKACiiigAooooAKKKKACiiigAooooAKKKKACiiigAooooAKKKKACiiigAooooAKKKKACiiigAooooAKKKKACgkAEk4A6mobu7t7C0kuruZIYIhueRzgAV4j4w+It34hDWVghttMI+YHBebnIz6DgcD3yT2xrV40ld7lwg5PQ6Hxr8S9gl07QJQ2QyS3Y/L92c/X5sfTsa8wTfM/mvIS78ktyaamVwS3U56dakETn+DIP8ADXi1q0qrvI64QUdg2tIcEcH071ZWKMLxlsUxMlmGcleOODUuCrHK5+p5rFFk8CBAqqmBg47d6nVTCrBFyBySOlVo8FdnQLyDkNVqPDMvzOe4OP8A69DQxqkjJcgjpipEO7C8/ic0qkDnPB/2adnZgjlenPpQIhCA4wy5NOClpEZtjqG655zSlFLFi7Yxjp/9elZEZVwzfKO4poQjR7Z3BLbex21Kign73P8ADuHSh/mRJMbj90j0pQflIIGOwx1oegDDGyAFgCPXNMYFmLAuMnqOakIKt6H+72prqHbkFXPXHPH9KEwHbm+yO2cHP04qspD7sKcc5w1XIlxbSrtDng4LVFjd1wB1wO1DBCjO1BnGfvHrx9aeoUHHIz2zg1HuHY5K9RjFSbi67tmG7E8Z/OoYySWNdvQYHAFQyIjwDcOAccEZpW3gc/zHNPJ/0ZehO7vTirAytt+TAiXA/hAp20sPlOPYd/yp24tgZ+b8aFGFzgKenzjrQwESPazZLDdxjOTTWZeMpjHXBqbAYY5Ge4H6VG6tjadwZvwpdQICMO4UD6+lRGPJPTA/iPerMgJYqFJ28cilKYYgq38qYiu6qqnjGOOnSoJFYHJ79K0SgXrjPseagkKuhBPAGOaExkenare6Rei5sLl4JlyMqRyD2I6Eexr1fwz8RbHV2W11HZZ3hOAxOIpPoT909eD7c5OK8kFsu3rzjoKbLEUjDbNq/wAJI6+tdNHEzpPTYznTUj6TorxTQfHuq6Jbx28kkd1aI6KIpQS6pzkIQR7DnIHGOBXrmj6xZ67pyX1k5aNiQVbhkYdVYdj0/Ag969ejiIVVpucs4OO5fooorcgKKKKACiiigAooooAKKKKACiiigAooooAKKKKACiiigAooooAKKKKACiiigAooooAKKKKACmSyxwQvNNIscSKWd3OAoHJJJ6Cn15D8UPFxnu/7CsLl1hh3LdmNuJH4wmRzgc5Gepx2rKtVVKHMyoRcnZGT8QPG7eJLgWGnkDTIH3B8YaZgMbjkcAZwB+J7AcekYS5K71lA43qDhvzwaEt9oxvBPrzU4jx0bPfg9K8GpVdSTlI7YwUVZD/KUjchH0FORW37DlAOjD/69Ebnr1xzz/nmpVdeCrHn19KgofFgqFVMluwNOTbllB9iKXaME7RhvyNPBII3Dpx2ahANj2IxUbeVwGHIqaKQA7W+8OgAqusbNkeV/tfKM1PEqNhE6qOMn9KGgJSQANjY79f60IBnYwLKe33jTo1H8Qx+GKsiIkZ4K9qm/KPcqmJkyrFiPVjwaUou3ACnjtmpvLdTtXoevH9KRot3JXBA/CmpLoKw2MIrYONjcHPWk2BTsO4EGkZNp6Z9x0NKshnXvvX07iqYhSpXYVX9eajOE3MxZe3PNL/FhmOM8YWlZQ2PnkxnpSQCwhWmWPO3PBzSSKqsM/NjrxjH0oUssilG+Yep/wAakljBmL/xE5GBTYERDbl2YUf98n6806MbQeM8/wAXSlWMGTIyC393jNBLZHUH1xxWUnd2KFc4OAxA9xkUSKAiDHPX0ojZPNPzAKD3708sHkJ+bP5Yq1ohEScHHT6YJp4ZG9WbvUgCn5jjOccmnYUEgvj6HFS2hkDxEqCF75xx/jUTbo90g4x0+b/CrTRq3O7BHUiq0mBDg4B35OGoTEQZVwMdzg4qQYUtnj6CmrEzLuyUUn+I0kksUGdrKp6ZI5/+tVBYGUgZbGwds8n2pBvYgsnHbB6VGLq3zue6tmY+jg1P9qjVly4Pvnik7gCRlJOisVO7BGf0NJqd3PeSB7qZpHVVRCx6KOgHtTXuohuO4Ak+uD+VQPKC+C68Dk5ojzAMVA/TtVzRPEl/4a1Jp7J1KkbJIpASjjryBjkdiP5Eg5zP23kY+9g4qNozHIDJ97H5VpGUoO6E0mrM+hPD/iGy8R6f9ptCVdDtlhb70beh9R6H+uQNavnvw5r0vh3XYryNcxj5ZYlJAdD2P8/qBXv1pcx3tnBdQ58qeNZEyMHDDI/nXtYXEe1jrujjqU+Rk1FFFdRmFFFFABRRRQAUUUUAFFFFABRRRQAUUUUAFFFFABRRRQAUUUUAFFFFABRRRQAUUUUAYfi7Wz4f8NXV9Ht8/AjgDHGXbgfXHLY74r54lM1xLJPNI0skjFndjksTyST3Oe9ejfF6C+fVrKZJX+yx2/EXO0tuO4jtkArn2xXn6SA7U2duc14uPqOVTl6I7KEUo3FhyYx82B6UqQyNOAAQOuPSnHK/dUDPqKsQuVXCsR655/8A11wmwn2ZuDnFIVIJDcP/AHhy341dWVTgOASeM0OY2YhQD9BmmmKxBESBuOHHcjoPrVyKWFu20jGCKrlOVKnBHr/hTvmHBBlJ9ePyNNq4E8qxsQfmdjwOM0eSF/1BPTpuyarqobHzOpXqODj61MxkBGOfYcmps09xigM3DfK47njdVuGQKMSjDDjB61RBDZ3McjrjtU6MrrggK/QEnrTlHmQr2LyzRnACfN9KjkBcE4IA71EsoVcP+XWhju5A4XrxWSjZjuMXBAIYqp7DvThtQ7+Gx6cUiFgykcD1PFKoz2LH2FaLzExjpvKyJ9xvbFMAbcQFAx8wIHGasqyj5SAAfXtTJU5OcDjgiqYiHBIyBz7AVbkjyVOOqD+VVdv4fjwatKxaIeq8EUN3QITyTz2oZGyoAI49aUbiT83Xse1C5fAXk9KxtqURiMr8wOAx6GngL3XtmkZ/n+YYx8vTrigzImMHLdx6VbEOwPx9T3qN22D5jtwOuKqy3m5RsYBuowCapmSbBO47yfvYpWZVi3cX0KowJ3HvgVWkvdwUhcDsf/10wom0AsWcjdlhmoC5TJZfrVIaSHFnl+/vfHXexI/wpsgRQPkwM9AKkQAqpx+tPYEKMjA7ZouVYjLDIOdpPYntUcm8qMMQ3IyM80+SMDbnlscVG8eM87T0GTmqAf8AOn8eRnGM0vku3VzjHQnNMRTwWAIPXPrUkchBwDxj5hj9aTuIrSWxjTggZPZefzoVSuCc/d555/zirCncCevPPFVJ4yq7gOD05zimmJoc9whCbWXAGM4Az1PbOa9E8A+MrbSbWax1e8ZbYANbMI2dV5O4ZAzzkEcY4PrXnUUWBuIxjqasCL93gP3281pSrOlLmiZygpKzPfbbxb4fukLR6vaKBxiWQRn8mwa0ra9tL1Wa1uYZ1XgmKQMB+VfOHk/uyVBz0yOtMkjJUkMfl6nrXZHMn1iZPDLoz6Zor5ztNa1qziSK11O9hjXpGszKo/CtZPH/AIpjRf8AibgqoHDQRkke52/rWyzCn1TIeHl0Z7tRXhg+InikJ5h1FQvo1vHz/wCO0TfEzxKV4u0j/wBpYE/kQar+0KXmT7CZ7nUD3trHdx2j3MK3MoLRws4DuB1IXqehr5+vPHHia/dRLrFxHgf8sT5Wf++MVv8Aw10rU9S8Wrrkxkkgtt/mzysSXdkIABPVvmB9h9RkjjVOajCO4Oi4q7Z7TRRRXcYhRRRQAUUUUAFFFFABRRRQAUUUUAFFFFABRRRQAUUUUAc14509bzw5LMsZae1IljKjkDOG/DBJ/AeleLXloI5fNhQgHl14+X3+n+FfRjosiMjqGRhhlYZBHoa8W1ywfSNburf7O0aLITCBz+7JO0gk9Me/UEV5mPpXamb0Z20OT3CT5Tkj2qSM5wV+XPOauX1llTNFCFGfmQL7dRjtVK3gZPugqRwSK8p6HWmmiVQsjBHb5s8Ed/rVgnaNpGe2D1qEp6sW+ppdrqo+bCjs39KNxlwMoOP6UnPTOCegzmokkRk6GP6jINPyY+WGA33f/wBdGwhwGV44GO3rSleMqp/wpS23Ln5QeoxQZAo5HA96E2IXHOHAOfUUmxS7MFIY9AD/AI0iuzcjkdODilORhiSPoOlUIlDpJgMf3g6E96Q5DbXzTG4HIzTRMQAgAZWPO7n6gUmroCeNl8vAz1pMfLhht/ShVTG2PK9trVIAsZ+cYYdjU8thkZJwu08dPv0JKcFWUlO3OTTmCkADt7UFNuPT6daakBDJEyfOCdo745p9vJtkHdG+VutSrGFbKjB/3gc/pUctt5jM4O1/Tb978e1VoA24VoZdnOQeDmnxbVhJJIz3z0FRzxyNaxuo+ffsbd/DxxVecC6dgmQi8Jg1LaRSQS3WcBG+VcjI71CTuIP3TSiEImGQZHfNIMFsnP0FIqwhOeOM+uKaw2YyeR6gUFtrgkA/XNL5jnr+B7U7MCEndLhiSpHRs8/55qPynWUKWyP7w55qdgDlchux60w7zyud3p3/AJ1SQEq5XPI+U9RQ6ngg9ewNA3b2DEr6epNOGfq/r1z/APXqRkIXoAy5HGB6UqoYznOT0A9KeAr8sSUx8wJzTGKoRjHt60XYCsNxKEt1/WoGTapySR3c/wAqkU55C8jpgdKkMOVKoAeOlF7AQKCGwT+HU04ojDkHGemOKmSHhQzL/n6U6X5VIULjOAKLiKmxVLFXO7JyopAGAzht2RwPWpzvLNn5s8/hUscX7sgnHGCf73tTbsJojjCjAJJbsc05Uwu3jb24oijaJ23EDPQelWDGQpbOADyKzkxlKSPzGHy9M/hSMqcN1PrVpvvOrHYFJ5qs8bMwyQAenqaaYELgs+IwCW65qBl+bG4Fs/lVkxOfkCYB7A5JpvkhFz3XqSKq4rFYKybh7817Z8LBB/wiDNEX81rqQzq3RXwAAPbaEP1JrxpyDj0x0Ir0X4SazskutHmZV8z9/CpwCWAw314AP/ATXXgZpVVfqY14twPVqKKK904QooooAKKKKACiiigAooooAKKKKACiiigAooooAKKKKACuN+IOjS3thDqEC5a1z5qquSyHHOf9nn8CTXZVDdWyXlnPay58uaNo2wcHBGD/ADqKkFODixxdnc8PiGWBONw5BPNZdy4t7po43VkkG5SGGB9T+Fbmrae2j6rc2EjiTyiBvXuCAQcduDWfPZxtZt5MS70bICrjjvXz042dpbo7YMorL6t+bCl3FjhtuOpG6quUDoqpwT1HIq1vjBLbGHr8vWszURTu+YkccYFSK2zoxyffGaA0ZQhcDJpoYksyBmPYUCJFKsd+GTPcHIH0BqRdz8qRIv8Ad5zmocEvgqw9SeKURlzyQuR25IpoRP5vHz8EcU/dvXC/kabGxA2N+8G3gyen9KUMvGF/BT0/nRYBxQcnrn1pjAqw2/L9Rwafx2Zgfp/WlO5sAOhP+fUUaiIl4kYgH2qdJXC4YAg9mpqxsONm499p3fypSMHDhl/SncBx8sngkEdicio2jkzvK/Jn7ynigsNvX9KdHNjDR7gfb/GiyYXGvJtXPrxwBR5injp6nPenNJDL/rkC/wC0q4I/CoGikQ+bCwkjHXav6Gi1holN+xheHYjHcMN3ximARo4Kls9B3qIOFVecZyce+akMoPysNvHT1rBv3maLYa5JblT+NV2IU8kYz1xVna7ZCH5f1NMkRgM7cVUXYZUAIB3Nk+wxSbTJ1CkDoSelI4UDaBx7ninkrj/az0rZCGhUjJ3n/d5p4+9jzOOmDzUYcBtvy7R3759qRiEXLc9s9h9aLCLLgLtJbIYelR55yhGOxxg1CHjdWwu7Bz7foakRcuWB6+1TYaYpAGWAHqQDgUwxl/u9B+NKxb5T1+h4p2cHcGyo56YxigLjRG3yhTjHLDv7U5l+U7stnnFPibPOdw96lIySOv1WpbGQJKV+UjpwO2acHSY4bhR97vT3G4DjnsRQAA2xiMfTvTEDbnO4jp0A5pSWZSu3IPQZwaXzE24AwTzkioXZkcYOcnqO1TuA4OIRjbkqeo7UebjPXHpnFI0Tsxy2WHJz0H5AZqPHzfu8lh/FuwaVkwHzyiS44fcyDPl0saeY27cRnniljQcgodxGfr+dTeVhU/hDfLx60pSS0AieAZDhuvQe1N4UMg4Xg+n1q39nCnqeKpzsp3NGW4Jw3v6VmrsZQu9pcjIGD0qbw5rMuga/balHEJjESSjZAYMCp59cE9jVRzK5EgDjjO3tVZ2ywyoLfqOa6abcWmuhEldWPqDT76HUtPgvbckxTIHUHGRnscdx0I9RVmvLfhd4miBn0q9YLNPKZIpnHzTOfvBmJ5PTH489K9Sr6KjVVWCkjz5x5ZWCiiitSAooooAKKKKACiiigAooooAKKKKACiiigAooooAKKKKAOD+IelwokOqodkrkQSYH3uCQTj0wR+VcGskqEeXiRv4Sfu5969wvrKDUbGazuF3RSrtYdx6Ee4PNeKzwTWV00FzDsmiYqyHHX/POe46da8nHUuWfOup0UpaWMC5ixcvtyu1yMenNIIxtx29qsaiPJvMtuKygMNp74warqQWBztz6jgV5x0rYtAOcZLZHvT/kLKCfmX9ah3sRwOeyg8mlXp86/MecHtSGThokXp7EUvKDO3DKe9LGmJAfMY9sA0DphcD3pXAb8u8HBOD29adk44PHoKGfGMgnjqO9C7eQR9afQB2/HXoKBgMT39jQxTlScinRjKMUG4j0FFxC4yvzcA+vWnI5iyF3A/7J61HnIbpv6ckZoEm1t5lBA5OzPH8qq5JKGbdztP8AvLu/nTgyjgxp9en8qriYf7TK3SmPLiMZQbvfrimBI/2fPAbI/izuFSIip+8jny/3vmXGfbvWbNesjbY8sv8AsLk5/KltLq/vrr7JY27zXG3O1Mk8egHXv0+tNJvRDJL7/XLKqBZCNrbDxSeU+8sxxWhqmlXekTxwaisi3DxiQ+YE6EkcbCeOMdc96qkDblSSMVzzTjNqW5qndXQ3cTxvzj0oMmODz60eYFUk4z6mo8o/LsfwprUAfaw4GM9qgI44I49R0qdiDwh2+9MYDnketWmBXdeCoHHTuKXhScLjHbdgUsquc8mmZy3JyPpWiBllTGUPUlgOnSmZP4dKYCOM9etTkgL5m0YY9aTBDCwXgggn9ahc8/Ln5sD8KeQpB6c/jmoTt3HqvIyM8CkgLMe1NuFx7nmpiBtxyee5qJCcfKQwHalUvngD+dQ1qMdGR5jMQcqOuaPkYdcnv0qGX5dvHJ5pglBk2hdzH2p2AmZsA8nHt2pqjI+flTyM9T9KcgI+Y/O/tyB9fWpVjLsG3/MOKTdhCKSflJ2gdKUxMOUUMfXdineaRgNjHtTJZtvz7lCeueKzu2MXPyMSmdvJCnNPM++3+bIU9Qao733M52BG9Gzu9OB3qRGiZBs3EZ6t3/DtRydwJXvHeDJwAeMDqxqmPmbLZBJzxUwXL/MOvQ7Rx+FI0XykoRk9crnFUrIRUdWEgTcSfvDFVpIGRgZFPPIB71fuV2xqVfa2cdMc1HsxIOFPH0pphYqWlxNZ3UdzA5SWNg6suMqw5zX0P4Q10+IfDdvfSMhuOY5gnGHB/TIwfxrwN41DgKmWPLH19TXc/Cq++z+Ip7FpPLingYrGf4nUgj8cb/yruwNZxqcvRmFeF437HsFFFFe4cIUUUUAFFFFABRRRQAUUUUAFFFFABRRRQAUUUUAFFFFABXnvxC0547u31NQBA6+TIVAyHGSCfXI4z/s16FWV4kspdQ8O3ttBnzSgZQOpKkNj8cY/Gsa9P2lNxKi7M8P1eRFNqW53Bunbn/8AXVLzFJG0fQ9BUOs3KT3jIv3YhsBPXPeooZk2g8H3r5871sWwoY85FSKD91TtHsTTBMQBk9vypQ67RtyT6D1pXGTKZR8qFfqVFOLfMOeCPSoQ7MDkhc+mDipBxwF+bHBP+FMCTqPuJjPcn/GlDr837tfZuev50kcZYZJyetPJCoCMfTHWlcBoZwq4wpzjPAOKkwwBLnJb36CowuVLMMY7g0p4XIJDYz9KVxCbghLjPTAqJ2AXA3DPaiRvmPTB53E9KhLeW5TG49CT0H0qhD5JMLuzwF6d6pyXTOxjUfL0ADYP0zTZjhmyxz0Ldz61DkpHhW+ZuM7furTQCNJvDIhx2ZlXGfb2r034SaUv2i/1GSFgYlWGFyPl5yWx7gBe/wDEfWvNV+V9qjLD26mvorw1YnTfDWnWjIY3SBTIjdVc8sPzJrtwVPmqc3YxrStGxyXxN087bLU07Zt3z+LL/wCzfnXnCzlU5Gcda+g7u0t7+0ktbqJZYJBh0YcH/PrXg95oN8mmf2pCxNikjQzpjmJxjBPsQR/nGZzDCtz549f0Lw9T3eVlXdztIUdxlTmiRWVV6fgMVHFKXj2JGDjoR/DTkmkT5SpD9z615qvsdDDzQFIdevam7zgYHtzTM/ePTHU0eXlex9x1rVJASAqe/wA31qvJBsfeuCPQU4RuueCB65zR82w/LlRxgcVQiFnXftA5PrUkcgAO4ZHcVHzu5G32zSHBfhhuHbNUArEo2zn6nvSIvys7bjtIxmnKvmoU5Dj7nb8KcpcWcqbcYA6981Ix8Thv4SKt7QODx6mqVoryAD7tX45FhB35yB2H6VDQyo+55HY/Ii/Lkg8+w96QMpBxwD78mnTjziWYls8YBAFLDChfhUyOo6n9arZCJUnRZFG7JPGO5pXfDL0UnoOuaXySMEjccdTSoMFWVVYEhOeMZNZO24ELI+55AjHd1D8YWpYm3nAO1epFS3SBIvlGOcNt67amdYljCkgKe4NS5dgKhtUUq2fkf5T7Z6Un2dredjuyh4x6Gp4pkMMik5bpn0plzcbI96GMtwp29D/hU3lcZFuVlyuMfSozKFcK+AG6U1nDSBxuZgOQOhpHd252gfT/ABqlEBt2vyLkDrn3/wA/WoEYscIMKOSe9SLzxnp2NJI6iNVA6nBOarYQ4B13MdoHvS2t3c2Wow3sTDzIZFkQryMg5/yKAyKh/ukYGOAaqSAbgAMZ9KIuzuhNXPp2is7QCx8OaWW+8bSLOfXYK0a+qTurnlhRRRTAKKKKACiiigAooooAKKKKACiiigAooooAKKKKACiiigDxP4j+CTpd62p2ER+wTks6IuFgfI4PYKSeO3b0rhERh8uR75/xr6juIIrq2lt50DwyoUdT/EpGCPyrw/xn4Ol8Pak88EZOnTP+5fcTsP8AcPoR2z1HvnHk4zDcnvx2OqlUv7rOWEhEeQnQg9TU6eYyjtnrhcUzahOOMehq2uxVGa8650WFjRQMNx6e9TKGZQeg9uaieTAGOfenLIQMbTgdTSd2CLHGzkjPalGC2SB/vHvVQz4b5j2xgUCbHy+nrRYCweFbGWzUXnbg3zZUDp1+lQys0gK5+U00BflQH607CCbMsfYL6dqY+GD9vm60+RwepBC+hqBxsj4HPYGmAx2GMgjPX6mq7naeWGcZA6nNPyQpZlz6Vs+GPCeoeKbtUt1MNmG/fXTJ8oxjIB6FuemfyHNa04OTsiZNLVnRfC7w82paqNZnhX7JZsVjDEHM2Bj5fYHOfXGPb2Wq9hYWumWUVnZQJBbxDCIg4H+J9SeTVivco0lShyo45y5ncK5m4J8P+I/PZguk6jxNub5Yp/7x44DDA/U8AV01VtQsINTsJrO5UmKVcNg4I7gj6HBqpxbWm5Kdtzg/FHgJlaXUNDUAYLyWgH/oAH57fbjsK8/fzCu11G4dsc17N4U1E3FlNp0xX7Vpj/ZZCmSGC8K3Prg/iDV6/wBA0nU/MN5p8EkkgAaXZtk46fOMMPzrzq2AjV9+m7HTCu4e7LU8FKFPvp1pWkRMYHtyc16VP8LoDIxttUeNP4fNgEjdO7bhn8hWfe/Cq8+R7XVIZZAcnzYzGB9MFq4/qVdbx/E19vDucIXYkkpwB+dNd3aM8Iv4V0Fz4E8W/wDLLTom9xOg/m1YjeHPERO06NqQ9/szkfyrJ0aq3iy1Ui+pXadQ33+MdKrSeQ4OcZPQ9s0NaPDO0M4ZSDtZcbSpBwQc+/auk8G+F4dZ1ryxc+WIozMN8SyZwyjGDx375+lEISlJRW43JJXZykcsqKZI0eRIz83yn5c+46VrWTW99A5DkN1ZFx/nn/Ir0n4na3Z2ejDREg3XcwSSPgBYlDdR7/KRgds/Q+SWcKRzGQfe6MezEnvW9elGm+W92TTm5q9jTmaGMbI3VMHj5f8AP+fyqNYmMu4SjcOoxkGmEsznjc46o3NPhP8AEqHPr1rnNGNMGJvM3dTyNvFWI12lSWORyBtFRpuBLk57VJ5q9R+PGal6gO3synEhz6lf/r0sbDO1OSw/hIyTTiRIv+10yDT1O/O7jbzn1/wrJ2AR2dX37CR7Hn8qYgdocLMCmchRwBVhNgOHy4U9+opzRDHmrjnqPX61PNbYCl5ciMrD58djncPcUSQqW3gls+hqdJN28ZwIzxkdKqtNIrE4O0t3/X3oTbGGwZVtw2+pGf1pjLlzwCAcfX9af5gMihuPcd6dHHG8srFic9hTba3ArGEu/Kjpx1qAq6Alhg9sdVqzchUHyPxu7c1Xkl6cgc49fyqk2xEURKom8FjtHPemkb8sn3ieTTxhZMEOAB19aa20ZO8Adc9qfUD6aRFjRURQqKMKqjAA9BTqr2Mc0On20Vw26ZIlWRs5ywAyc/WrFfVI8oKKKKYBRRRQAUUUUAFFFFABRRRQAUUUUAFFFFABRRRQAUUUUAFRz28N1A8FxDHNE4w0cihlb6g1JRQB5P4q+HUtjuu9Ejkntur2+S8iEk/dAGWUZHqfr24Yr5fBOCO3TmvpGsTV/CWia4zSXlknnkH9/Gdj5xgEkfeIwMbs4rzq+AUnenodEK7WkjwguznCMR7mgE+YG64r1C6+FFkyqLLVLmEfxeciyZ+m3biseT4VaukpEN5YvEDwXZ1J+o2nH51xywdaPQ1VaD6nEs6gHp78U0uu0PxtJ/Guiufh74pWV0jsFkVWIDpPHg88EAsDj6gH2qD/AIV54sbltMzx08+L/wCKrP6vV/lf3Fe0j3OeMpwzhQGzwfSnIcoDkFjycCustvhX4huI/Nkaztmzjy5pST+agjFatp8I7toV+2axDEwOCkMJkBX6sR79v8KtYWtL7IvawXU85eQBvv8AzfWmSb856p6mvaLL4WeHbZ99wLm8JXBEsu1QeORtAPb1NdDpvhnRdIZXsdNgjkUkrKRvdcjBwzZI47Z7n1reGAqP4nYzdePQ8w8N/DCfWNPgv9QvpLSKRtwgWEbmj4Od2eM84yD64r1rTtOtdJsI7Kyi8q3izsTcWxkknkknqTVqivRpUIUl7qMJTctwooorYgKKKKAOO8I/8jR4pGMf6QnH/ApK7GuNmu30H4igTACz1qNUVsdJVACj+f8A32K7KsqOicezZc97hRRRWpAUUUUAVbrTLC+cPd2NtcOBgNLErkD05Fch4n8R6L4Qfy9O0yzfVAv3Y4gvkgg4LFRn0+XgkemRnU8U+JYtOs7yztFuLjUfs0j7bVdxt/lJDuf4R0Pr09a8AlmeZj56lhncVLZyfc1wYuuqekVqb0qfNvsaF7q17rl6dR1O5aebaEQkAYHsBgAfh6nvmhFzGBjqarNI23naGwcDFXLTp94DAA5Oa8icm/eZ2pJaEjriJXfHPB+tPVmVCT8rf3uv505tnRzgHv2+tNjPPzLkD7xNZ301KJ4mR1RM7So5JoiAe4aMADZg59aja33ksuBtGTx1pLVzFIZS3bBzUvbRiLixK0mBuz3NBhVJCOB3zToJDHkgZB9aJ0+ffgBRyRUXYFcgO746j0PB/nSpI+3bhhn+83/1qsptk+ccjp9aGjUzYUK0e3r6H2o5gKW549yRA5bliT0J/Cq6+Zuw2Cex7ZrYXywpymAx5bHNUrxAQjpym/t27D/PvTjJXArSqQyMEBXHPJz/ADouWAjDIVwR6n+tTPGVYAdQOQearSMBg7GwSO+apMBksMu1Wdy+ehzUDyGF1+TjOeOavAoJFCTDlenpUG8Bi7hTz168VPMxld5cD5ZG5OMEdKu+HdHHiDxFZ6blkjd8yNn+BRubkdyAR064qhOEV/lXOTnOMYr0n4TaNMst1rcgZImQ28QI4fLBmPrxtA/E+ldeFp+0qJGVWXLFs9Sooor6M84KKKKACiiigAooooAKKKKACiiigAooooAKKKKACiiigAooooAKKKKACiiigAooooAKKKKACiiigAooooAKKKKACiiigAooooA5D4hWch0eDV7dsXOmTLMmehyw7f7wU/ga6ewu1v8ATra8Vdq3ESShSc4DAHH61BrdsbzQr+3WMSPJbuqKRnLbTj9cVj+AJkk8H2sSyb2geSN/9n5yQP8AvllrJaVfVF7xOnooorUgK57xRrktjHFpmlsr63e/LbR4DbBn5pG9AADyc8joQDjZvb2206ylvLyZYbeJdzu3QD+p9u9cf4EWfXZLrxVqcZ+1Tt5NqpHyxQj+57Ekgn1B9TUSevKupSXU6DQ/D9rpGlm3aNJri4XN5M/zG4cj5ixPJGSeD61873rxi9ufJgEC+cwWHeXVBngbjycdM9a+oK+ZNZ0m50bW7jTbtB50TYxGcgg8gj2IIP484PFcGPjaEbI3w71ZXOXTJzgdiav2UoMe0t82F9KpBs4cDKqDmr1gy+SPw3ZHevIlsdaLhQEtv3e3FLCQzDIAz8pJ4GaUEMu7PHpUagytgAAnqCeMelZp6ajLzxsAEXH5/wD1qaYHUKdvzCiKQKyxthuw3H9KnkZ9oBGV/UfjUXaAhMIABJyf5UzzQwYPnuPWrcQyu0Yx05xVR0USMMYY5AwOooTvuA+OURrjZu7ZFOjkRyy5CnPyg8UttGGhV3PzZI+970xrVI5Tzgnuev8AjS0GWJv3kQQ8fQ9aznd/KmjJ528+pqWSUpJtbhRxgYxVaVw8vIAQrgEfxU0gHtIR8xb+Hqaqvh1APVT1FWZVPlZxgYzktUSLi3AbJB6n+tXdIRWl3b+HbPfmlC/LlnGR/eNSsdqjaA3vTbawudUvo7W1jMtxM21I0wM/n296pXk7ILpal/w74cu/FGpNa2yiOKPDTXBHyoM/q3XA747Dke7aTpdto2lwafZqwghBC7jkkkkkk+pJJ/Gs/wAKeHIfDWix2qhGuWG64lX+Nvr6DoOnrjJNblfQYTDKjG73Z59Wo5vyCiiiusyCiiigAooooAKKKKACiiigAooooAKKKKACiiigAooooAKKKKACiiigAooooAKKKKACiiigAooooAKKKKACiiigAooooAKKKKACuK8No2meOtc0qKT/AEV1+0rGFwqsdp4HbhwPfA9K7WuRfbZfFCPyxk3tkfMz2xnp/wB+x+tZVdHF+ZcOqOupskiQxPJI6pGgLMzHAUDqSfSnV558WtavNN0S3s7WVIkvBIJSThmVdvyj2O7n16dCaucuWNyYq7scl4h1i++Ini9dH0iV209WHlggqmAPmkcficd8YGMnB9st4IrW2it4ECRRIERR/CoGAPyrz/4S+GE0vQBq9xEy3t6CBvBBWLdxwQOpG7PcbcV6JUUov4nuypvougV5b8V/C4aH/hI7bfvXZHdKGGNvRX5PuFwM9Rx1z6lVe/sbfUrCeyuoxJBMhR1Poe49x1B9adWmqkHFihLldz5gSVnG3IUDhj0qzZvsZz3bj8BVrV9Au/DV81jqEY8wDcrZ3K65wGHscHrg1WtJEiymcZ7Ba+enFxbTR6MXfU00kUxfxA5+9jjrVmCRni+YliQMluv61lpPsHTAAOcnir1vMCzdf6VzyjZFFiWNY1G4kFugHJP0qS3uC6KkjYYdTxzVV5Xabdk54ULT5UyNxB57Cp9QLJcRSfI+4dOvFMmPnhHQY2t8wqjHIInJ2bhj7wHSnyTKIxtchmI49aOXUZOtx5JIBznqMVI9wkwGAS1UTIYxtbA7+9RNMI9xjwW7FqrkuImuX8uSLPIZv++ajmyxwM9ehqL7Ru3bw2/qQe1OhS8vbtYrW0kuHIyFhQu3vwKcYvYGyUSoqEFj/wADqEzAD5XynoD/ACrsbD4YaxeSiS8eGyXcVbcwkfGOCAvHX1YHiu30X4f6Ho5jlaA3dymD5s/IBx1C9BzyM5I9a7KWX1ZvVWXmYyrwjtqeaaB4N1TxHIksI+zWB5a4lBwecEKP4j19uOtevaD4c0/w7atDYxsWc5kmkIMj+mTgcDsBgde5Na1FevQwtOjtv3OSpVlMKKKK6TMKKKKACiiigAooooAKKKKACiiigAooooAKKKKACiiigAooooAKKKKACiiigAooooAKKKKACiiigAooooAKKKKACiiigAooooAKKKKACuO1FgPilpC45Nox/SWuxrjPGcbaXq+k+JVDslrIIbgLzhGzz6Dqw5PUrWVb4b9mi4bnZ1wXjuJbnxX4Rg2CT/SmZlIz8u6POR6YB/I1t6n4z0qysUktZ4766nA+z2sLEvIScYwASvfqOxHWq/hjw5dW95NrutzCfVboZCHJW0U5OxMk9iB7cjJySSb5/dQlpqzqqKKK1JCiiigCnqelWGsWhtdQtY7iEnIVxyD6gjkH3Fef698J7Ywy3GhzyJMMuttM25WP91WPK9+ue3I616ZRWVSjCoveRUZyjsfNOoaffaTci21C1lglDcrIuN3OMgngjPQjg0trOsa8jIJ619D6ro9hrdmLTUYPOgDB9u9l5HfIIPc1ysvwq8PySMyzX8asfuJKpAHoMqTj8a8yrl0r+47o6Y4hdTycvjOWwTyOOlSx3Sq2QAeO7V6fJ8KNFcx4vL/ap+YM6HI9B8oxVuz+GXh21JMiXVzkYAlnI2/TZtrP+zqr0divrEDyJJdkj7+dzbuKHhku3WK1jeSZz8qqpJY9gAOpzXutt4S8P2kPlR6RaMuc5mjEp/NsmtS2tbezhENrBFBEOQkSBR+QrWOWPrIl4ldEeG2HgbxPf7GFjJEhbaXum2bfcqTux9BXQ2fwku23G91WGLkbVgjMmR35O3H616tRXVDAUo76mbxE2cbafDLw/bvum+1XXGCssuBn1+UAj866u0srWwgEFpbxQRDnZGgUZ9eO9T0V0wpQh8KsZOUpbsKKKK0JCiiigAooooAKKKKACiiigAooooAKKKKACiiigAooooAKKKKACiiigAooooAKKKKACiiigAooooAKKKKACiiigAooooAKKKKACiiigAooooAKKKKACobu0gvrSW1uollglUq6N0IqaszxC7ReH76VZmhaOIyB1OD8vOM++Mfj36UpOybGtzzX4c6BJda1HqSiMWlgWUuyktLKVIAXphVBzz3I45yPXa4j4WgDwzckAhTevjn/AGEH8wa7escPFRprzKqO8gooorcgKKKKACiiigAooooAKKKKACiiigAooooAKKKKACiiigAooooAKKKKACiiigAooooAKKKKACiiigAooooAKKKKACiiigAooooAKKKKACiiigAooooAKKKKACiiigAooooAKKKKACiiigAooooAKKKKACiiigArlPiLdm28IzIBkzyJHn053f8AstdXXLfEO0S68G3ZcEmFklUD13AH9Caip8DsOO6JvAUIh8E6aAPvo0hOOu5if610dcl8NtTOpeC7YMGEtq72z5/2Txj22la62in8CHLdhRRRVkhRRRQAUUUUAFFFFABRRRQAUUUUAFFFFABRRRQAUUUUAFFFFABRRRQAUUUUAFFFFABRRRQAUUUUAFFFFABRRRQAUUUUAFFFFABRRRQAUUUUAFFFFABRRRQAUUUUAFFFFABRRRQAUUUUAFFFFABRRRQAUUUUAFcj8SdTudL8G3D20ZZZ2EEzbd2yNgQSfTJwuT/e9cV11cV8ULqSHwl9nicBrmdUYHqVGW/mq81FV2g2VBXkjA+D+p3sy39i1i8VmHa4ErL1YhFAznHZuMduvWvVK5vwNokmh+F4IZwwuJj58qn+BmAwvthQoPuDXSUqSagrhNpvQKKKK0JCiiigAooooAKKKKACiiigAooooAKKKKACiiigAooooAKKKKACiiigAooooAKKKKACiiigAooooAKKKKACiiigAooooAKKKKACiiigAooooAKKKKACiiigAooooAKKKKACiiigAooooAKKKKACiiigAooooAK8r1NW8b+OltI5jJp0B2gqeFQY3sMZHzHgN7rXV+PNcGkaA8CbTcXoaFA2eARhj+oH457VnfDbRPs2nyatLzLc5jj68IDz+JYf+Oj1rlqvnqKkvVmsPdi5HdUUUV1GQUUUUAFFFFABRRRQAUUUUAFFFFABRRRQAUUUUAFFFFABRRRQAUUUUAFFFFABRRRQAUUUUAFFFFABRRRQAUUUUAFFFFABRRRQAUUUUAFFFFABRRRQAUUUUAFFFFABRRRQAUUUUAFFFFABRRRQAUUUUAFFFFABRRRQBw/ju20K81XRk1rUJbVYhK6LFGWLH5O/O37voc89K6bw/b29toNkloZTbmMSR+cBvw3zc44zzXlvxH1iJfHsNqQf3FqqkkcBiWb8iCv/AHya9N8L3KXfhfTZUztECx8+q/Kf1BrmpyvWkrGslaCNeiiiukyCiiigAooooAKKKKACiiigAooooAKKKKACiiigAooooAKKKKACiiigAooooAKKKKACiiigAooooAKKKKACiiigAooooAKKKKACiiigAooooAKKKKACiiigAooooAKKKKACiiigAooooAKKKKACiiigAooooAKKKKAOA1nwONf+IMGpTWbw6fFH/pLvMrfamGNqqvO1fX7uefqe7gghtoEgt4kiiQYWONQqqPYDpUlFSopNtdRtthRRRVCCiiigAooooAKKKKACiiigAooooAKKKKACiiigAooooAKKKKACiiigAooooAKKKKACiiigAooooAKKKKACiiigAooooAKKKKACiiigAooooAKKKKACiiigAooooAKKKKACiiigAooooAKKKKACiiigAooooAKKKKACiiigAooooAKKKKACiiigAooooAKKKKACiiigAooooAKKKKACiiigAooooAKKKKACiiigAooooAKKKKACiiigAooooAKKKKACiiigAooooAKKKKACiiigAooooAKKKKACiiigAooooAKKKKACiiigAooooAKKKKACiiigAooooAKKKKACiiigAooooAKKKKACiiigAooooAKKKKACiiigAooooAKKKKACiiigAooooAKKKKACiiigAooooAKKKKACiiigAooooAKKKKACiiigAooooAKKKKACiiigAooooAKKKKACiiigAooooAKKKKACiiigAooooAKKKKACiiigAooooAKKKKACiiigAooooAKKKKACiiigAooooAKKKKACiiigAooooAKKKKACiiigAooooAKKKKACiiigAooooAKKKKACiiigAooooAKKKKACiiigAooooAKKKKACiiigAooooAKKKKACiiigAooooAKKKKACiiigAooooAKKKKACiiigAooooAKKKKACiiigAooooAKKKKACiiigAooooAKKKKACiiigAooooAKKKKACiiigAooooAKKKKACiiigAooooAKKKKACiiigAooooAKKKKACiiigAooooAKKKKACiiigAooooAKKKKACiiigAooooAKKKKACiiigAooooAKKKKACiiigAooooAKKKKACiiigAooooAKKKKACiiigAooooAKKKKACiiigAooooAKKKKACiiigAooooAKKKKACiiigAooooAKKKKACiiigAooooAKKKKACiiigAooooAKKKKACiiigAooooAKKKKACiiigAooooAKKKKACiiigAooooAKKKKACiiigAooooAKKKKACiiigAooooAKKKKACiiigAooooAKKKKACiiigAooooAKKKKACiiigAooooAKKKKAP/9k=;" vertex="1" parent="1">
          <mxGeometry x="200" y="250" width="512" height="512" as="geometry" />
        </mxCell>
      </root>
    </mxGraphModel>
  </diagram>
</mxfile>
